# xmcd CD database file
#
# Track frame offsets:
#	150
#	12317
#	21017
#	34517
#	45250
#	61120
#	76480
#	84940
#	99917
#	110904
#	122002
#	140635
#	157232
#	167487
#	183075
#	193517
#	201130
#	210605
#	225400
#	233835
#	250370
#	259902
#	270320
#	280767
#	294110
#	307815
#	320960
#	328010
#	336437
#
# Disc length: 4657 seconds
#
# Revision: 1
# Processed by: cddbd v1.5.2PL0 Copyright (c) Steve Scherf et al.
# Submitted via: CDex 1.51
#
DISCID=8c122f1d
DTITLE=Honza Vycital - T jako Textar - cd1
DYEAR=2006
DGENRE=Country
TTITLE0=To tenkrat v 45
TTITLE1=Abilene
TTITLE2=T jako Texas
TTITLE3=Rovnou, tady rovnou
TTITLE4=Zatracenej zivot
TTITLE5=Cervena reka
TTITLE6=A tak ja v tom zas litam
TTITLE7=Houston
TTITLE8=Ja jsem vandrak a karbanik
TTITLE9=Blues Folsomske veznice
TTITLE10=Oranzovy expres
TTITLE11=Dnesni noc bude dlouha
TTITLE12=Kocare mym je vagon uhli
TTITLE13=Mimozemstan
TTITLE14=Blues prazdneho motelu
TTITLE15=Vlak v 0,5
TTITLE16=Ja v posledni dobe
TTITLE17=Balada o Ira Hayesovi
TTITLE18=Nebij zenu v nedeli
TTITLE19=Svatebni zvony
TTITLE20=Rychlik
TTITLE21=Kdyz nas tata hral
TTITLE22=Dum v pastvinach
TTITLE23=Zalesacka bowle
TTITLE24=Na vanoce rano
TTITLE25=Jen tohle chci ti rict
TTITLE26=Vyju na mesic
TTITLE27=Za chvili uz budu v dali
TTITLE28=Pivni dzip
EXTD=YEAR: 2006
EXTT0=
EXTT1=
EXTT2=
EXTT3=
EXTT4=
EXTT5=
EXTT6=
EXTT7=
EXTT8=
EXTT9=
EXTT10=
EXTT11=
EXTT12=
EXTT13=
EXTT14=
EXTT15=
EXTT16=
EXTT17=
EXTT18=
EXTT19=
EXTT20=
EXTT21=
EXTT22=
EXTT23=
EXTT24=
EXTT25=
EXTT26=
EXTT27=
EXTT28=
PLAYORDER=
